<svg xmlns="http://www.w3.org/2000/svg" width="1200" height="1600" viewBox="0 0 1200 1600" role="img" aria-label="Portrait placeholder">
  <defs>
    <linearGradient id="g1" x1="0" y1="0" x2="1" y2="1">
      <stop offset="0%" stop-color="#f5f0e8"/>
      <stop offset="55%" stop-color="#e9edf4"/>
      <stop offset="100%" stop-color="#d8e2ef"/>
    </linearGradient>
    <radialGradient id="g2" cx="50%" cy="25%" r="70%">
      <stop offset="0%" stop-color="#ffffff" stop-opacity="0.7"/>
      <stop offset="100%" stop-color="#ffffff" stop-opacity="0"/>
    </radialGradient>
  </defs>
  <rect width="1200" height="1600" fill="url(#g1)"/>
  <circle cx="780" cy="320" r="240" fill="url(#g2)"/>
  <rect x="200" y="180" width="800" height="1240" rx="48" fill="rgba(255,255,255,0.18)" stroke="rgba(16,35,63,0.10)"/>
  <g transform="translate(420 300)">
    <circle cx="180" cy="140" r="78" fill="#e9d8c8"/>
    <path d="M120 250c20-52 50-80 60-80s40 28 60 80 28 86 28 150v150H92V400c0-64 8-98 28-150z" fill="#f4efe8"/>
    <path d="M112 132c20-34 44-54 68-58 22-4 45 3 68 22 25 21 40 45 44 72-9-20-23-35-43-45-20-11-42-15-65-12-30 4-57 22-72 51z" fill="#8b6f5a" opacity=".85"/>
    <rect x="92" y="430" width="216" height="20" rx="10" fill="#d8dfe8"/>
    <rect x="28" y="460" width="344" height="16" rx="8" fill="#c7d1de" opacity=".75"/>
  </g>
</svg>